<?xml version="1.0" encoding="utf-8"?>
<!-- Generator: Adobe Illustrator 25.2.3, SVG Export Plug-In . SVG Version: 6.00 Build 0)  -->
<svg version="1.1" id="Layer_1" xmlns="http://www.w3.org/2000/svg" xmlns:xlink="http://www.w3.org/1999/xlink" x="0px" y="0px"
	 viewBox="0 0 595.3 841.9" style="enable-background:new 0 0 595.3 841.9;" xml:space="preserve">
<style type="text/css">
	.st0{fill-rule:evenodd;clip-rule:evenodd;fill:#16132B;}
	.st1{fill-rule:evenodd;clip-rule:evenodd;fill:#FFFFFF;}
</style>
<path class="st0" d="M438.3,362.8c-8.7-4-77.6-23.8-100.2-18.1C303.4,349.8,54,452.5,53.7,452.5c-0.5-1.6,3.3-8.2,3.6-9
	c0.1-5.7,236.2-96.5,248.7-101.8c9.8-4.2,18.6-8.1,32.9-7.8C376.6,330.9,428.5,351.3,438.3,362.8z"/>
<path class="st0" d="M353.2,351.6c77.8,5.5,105.8,26.7,105.8,27c-8.2-1.8-68.5-21.1-107.4-17.1c-20.4,2.1-310.9,103.1-313.5,105
	c-0.3,0,0.6-2.4,1.5-3.3c19.7-10.4,249.6-97.8,300.3-110.5C344.3,351.7,348.7,351.3,353.2,351.6z"/>
<path class="st0" d="M464.3,388.1c-1.8,1.1-73.8-10.5-99.5-7.6C334.6,383.6,31.2,476,30.5,476c0-0.2,1-3.2,2.1-4.1
	c2.9-0.8,78.3-24.1,100.5-31.6c69.5-23.4,139.7-47.8,210.4-67.6C377.1,363.4,457,382.4,464.3,388.1z"/>
<path class="st0" d="M490.9,530.3c-109.8,0-440.1,0.9-450.6-3.6c-10.3-4.5-24.6-19.8-26.6-37c23.3-5,292.9-55.8,298.3-56.7
	c7.4-2.1,18.1-11.1,24.6-14.2c19.2-9.3,185.8-20.7,241.1-21.6c0.6,0,1.2,0.1,1.8,0.4c1.9,0.9,2.7,3.3,1.7,5.2
	C523.1,518.8,506.9,532.2,490.9,530.3z"/>
<path class="st0" d="M468.7,395.8c-0.2,0.3-87.3,2.3-97.7,4.9c-32.3,8.2-346.4,82.5-346,82.5c0.3-1.2,0.9-2.2,1.7-3.2
	c4.6-0.6,329.1-87.2,335.3-88.4C385.3,387,466.2,392.6,468.7,395.8z"/>
<polyline class="st0" points="273.9,348.1 268.3,331 257.9,334.4 260.2,327.6 266.1,325.5 262.4,313.5 269.9,311.4 282.3,320.3 
	288.6,319 296.4,323.2 287.8,325.7 303.4,336.7 "/>
<polygon class="st0" points="102.9,373.9 86,381 89.2,406.4 138.5,385.4 "/>
<path class="st0" d="M168.9,388.1c-3.9-0.6-13-0.3-14.9,0c-11.3,1.5-68.3,24.6-74,28.5c-4.3,3-6.5,10.5-6.5,10.5
	S172.8,388.7,168.9,388.1z"/>
<path class="st0" d="M212.2,371.4c0,0-0.9-11.2,7.4-14.8c8.4-3.6,18.9,4.8,18.9,4.8L212.2,371.4z"/>
<path class="st0" d="M180.6,383.6c0,0-1-11.2,7.4-14.8c8.4-3.6,18.9,4.8,18.9,4.8L180.6,383.6z"/>
<polygon class="st1" points="213.7,475 200.8,476.6 198.6,469.6 210.9,467.5 "/>
<polygon class="st1" points="189,478.3 177.7,479.7 175.8,473.6 186.6,471.7 "/>
<polygon class="st1" points="164.5,480.8 155.3,481.9 153.8,476.9 162.5,475.4 "/>
<polygon class="st1" points="146.2,483.2 138.2,484.2 136.9,479.8 144.5,478.4 "/>
<polygon class="st1" points="129,485.3 122,486.2 120.8,482.3 127.5,481.2 "/>
<polygon class="st1" points="115.2,487.3 108.9,488.1 107.8,484.7 113.8,483.6 "/>
<polygon class="st1" points="103.2,488.9 97.7,489.6 96.7,486.6 102,485.7 "/>
<polygon class="st1" points="91.2,490.1 86.7,490.7 86,488.2 90.2,487.5 "/>
<polygon class="st1" points="82.3,491.3 78.4,491.8 77.7,489.6 81.5,489 "/>
<polygon class="st1" points="73.9,492.3 70.4,492.8 69.8,490.9 73.1,490.3 "/>
<polygon class="st1" points="65.7,493.8 62,494.2 61.4,492.2 64.9,491.6 "/>
<polygon class="st1" points="58.6,494.7 55.4,495.1 54.9,493.3 58,492.8 "/>
<polygon class="st1" points="51.7,495.4 49.1,495.7 48.7,494.3 51.1,493.8 "/>
<polygon class="st1" points="46.5,496.1 44.2,496.4 43.8,495.1 46,494.7 "/>
<polygon class="st1" points="41.6,496.7 39.6,496.9 39.3,495.8 41.2,495.5 "/>
<polyline class="st1" points="227.4,472.5 225.1,465.1 307.7,451.4 299.2,462.4 "/>
</svg>
